<?xml version="1.0" standalone="no"?>
<!DOCTYPE svg PUBLIC "-//W3C//DTD SVG 20010904//EN"
 "http://www.w3.org/TR/2001/REC-SVG-20010904/DTD/svg10.dtd">
<svg version="1.0" xmlns="http://www.w3.org/2000/svg"
 width="1000.000000pt" height="1080.000000pt" viewBox="0 0 1000.000000 1080.000000"
 preserveAspectRatio="xMidYMid meet">

<g transform="translate(0.000000,1080.000000) scale(0.100000,-0.100000)"
fill="#000000" stroke="none">
<path d="M4795 9840 c-265 -53 -458 -160 -661 -366 -191 -194 -230 -292 -261
-657 -20 -237 -22 -663 -5 -815 16 -141 42 -253 53 -227 4 11 8 31 8 45 2 55
15 55 90 -1 39 -30 71 -61 71 -70 0 -11 11 -20 29 -24 38 -8 45 -18 65 -86 19
-66 64 -132 105 -154 42 -21 458 -22 499 -1 62 32 87 78 106 191 l12 70 49 25
c61 30 155 32 229 4 56 -22 60 -27 75 -108 14 -79 47 -144 85 -167 28 -17 53
-19 269 -19 206 0 241 2 263 17 42 27 80 97 103 188 8 31 17 43 41 52 20 7 30
18 30 32 0 13 19 35 52 60 58 44 67 41 68 -19 0 -48 17 -21 25 42 4 26 11 51
16 54 5 3 9 26 8 52 -1 26 8 112 19 192 45 315 51 606 16 760 -19 87 -70 240
-106 320 -43 94 -131 222 -186 268 -194 162 -496 307 -726 347 -120 20 -325
18 -441 -5z m1089 -912 c48 -188 95 -357 132 -473 29 -91 105 -374 128 -476 5
-24 1 -28 -49 -47 l-55 -21 -72 34 -72 35 -231 1 c-215 1 -227 2 -185 15 65
21 264 54 323 54 45 0 130 -20 190 -45 34 -14 17 17 -40 72 -76 72 -101 84
-194 90 -98 7 -209 -10 -316 -49 -92 -33 -126 -64 -137 -124 -4 -20 -19 -52
-33 -69 l-26 -33 -41 15 c-56 20 -199 20 -256 -1 -45 -16 -45 -16 -64 9 -10
14 -31 32 -47 41 -18 9 -29 23 -29 35 0 64 -62 110 -207 151 -62 18 -103 23
-204 23 l-126 0 -56 -42 c-50 -38 -107 -100 -107 -116 0 -3 32 5 72 19 43 14
94 24 128 24 64 0 261 -32 330 -54 42 -13 31 -14 -166 -15 l-210 -1 -84 -41
-84 -40 -66 27 c-36 15 -66 28 -68 30 -6 4 24 95 52 162 47 112 76 239 86 387
11 155 33 315 52 377 15 50 32 61 148 100 88 29 105 31 235 32 105 0 154 -4
195 -17 157 -50 239 -61 440 -61 221 -1 336 14 545 68 72 18 132 34 135 35 3
0 18 -50 34 -111z m-1084 -1006 c19 -11 43 -36 53 -56 19 -36 19 -41 3 -142
-17 -113 -30 -145 -71 -184 -26 -25 -29 -25 -230 -28 -233 -4 -248 0 -289 71
-13 23 -36 86 -51 140 -26 97 -26 99 -8 135 10 20 33 47 52 59 33 22 41 23
270 23 210 0 240 -2 271 -18z m1080 3 c40 -20 70 -62 70 -97 0 -46 -39 -191
-63 -233 -43 -75 -50 -77 -279 -79 -179 -1 -207 1 -231 17 -41 26 -65 84 -82
197 -14 94 -13 105 2 137 32 69 49 73 316 73 191 0 244 -3 267 -15z"/>
<path d="M4427 7860 c-43 -11 -91 -35 -126 -61 -29 -23 -22 -23 49 -4 75 20
94 20 85 -2 -4 -10 -10 -29 -13 -42 l-5 -24 21 21 c26 26 52 19 52 -14 0 -29
-24 -41 -45 -24 -9 8 -15 8 -15 2 0 -23 53 -52 94 -52 66 0 108 52 92 115 -4
14 -4 25 -1 25 3 0 35 -13 70 -29 56 -26 64 -27 55 -11 -37 70 -211 125 -313
100z"/>
<path d="M5588 7893 c6 -2 18 -2 25 0 6 3 1 5 -13 5 -14 0 -19 -2 -12 -5z"/>
<path d="M5508 7883 c7 -3 16 -2 19 1 4 3 -2 6 -13 5 -11 0 -14 -3 -6 -6z"/>
<path d="M5532 7845 c-49 -15 -85 -36 -124 -73 -42 -38 -34 -45 20 -18 26 13
57 27 70 31 21 6 22 4 16 -19 -16 -64 25 -116 92 -116 41 0 94 29 94 52 0 7
-5 7 -14 -1 -30 -25 -67 16 -40 44 21 20 30 19 49 -7 l17 -23 -5 25 c-2 14 -8
33 -12 43 -9 22 7 22 87 1 33 -8 62 -13 65 -10 8 7 -84 57 -134 72 -57 17
-124 17 -181 -1z"/>
<path d="M3752 7983 c-22 -9 -52 -80 -57 -140 -6 -62 -1 -55 29 49 24 82 60
98 115 52 17 -14 31 -21 31 -16 0 6 -14 22 -31 36 -29 25 -58 31 -87 19z"/>
<path d="M6270 7968 c-19 -13 -35 -29 -38 -36 -2 -7 13 -1 33 13 21 14 46 25
57 25 25 0 53 -49 69 -123 11 -54 14 -58 17 -29 5 47 -24 138 -50 157 -30 21
-49 19 -88 -7z"/>
<path d="M3795 7900 c-20 -22 -46 -109 -37 -124 3 -5 14 15 25 45 23 65 43 90
65 82 10 -4 13 -2 8 5 -11 18 -41 14 -61 -8z"/>
<path d="M6244 7908 c-5 -8 -2 -9 9 -5 24 9 44 -16 63 -78 10 -30 22 -55 26
-55 9 0 1 59 -13 96 -17 46 -67 71 -85 42z"/>
<path d="M6210 7834 c0 -6 9 -23 20 -37 20 -26 25 -77 11 -126 l-6 -24 -28 33
c-38 45 -44 32 -7 -15 34 -42 34 -45 19 -98 -8 -29 -18 -41 -40 -49 -36 -12
-38 -27 -3 -20 l26 5 -20 -40 c-11 -22 -28 -45 -36 -52 -9 -8 -16 -18 -16 -24
0 -22 58 46 83 96 30 63 57 178 57 244 0 40 -6 55 -30 83 -16 19 -29 30 -30
24z"/>
<path d="M3857 7802 c-32 -33 -34 -64 -13 -174 14 -74 50 -166 80 -203 21 -27
21 -3 0 38 -12 21 -13 32 -5 35 17 6 13 19 -7 24 -13 4 -23 21 -31 53 -11 44
-10 49 14 80 34 45 32 55 -4 21 l-29 -28 -7 57 c-7 49 -5 61 15 87 29 39 21
45 -13 10z"/>
<path d="M5232 7435 c0 -16 2 -22 5 -12 2 9 2 23 0 30 -3 6 -5 -1 -5 -18z"/>
<path d="M3910 7372 c0 -13 23 -32 38 -32 7 0 10 4 7 10 -9 14 -45 32 -45 22z"/>
<path d="M6161 7366 c-19 -7 -37 -18 -39 -24 -7 -21 26 -13 55 13 32 28 31 28
-16 11z"/>
<path d="M4846 7107 c-32 -41 -33 -79 -5 -124 26 -41 37 -37 15 6 -22 41 -20
77 5 117 27 44 17 44 -15 1z"/>
<path d="M4939 6971 c13 -12 34 -21 47 -21 33 0 30 1 69 -16 44 -18 103 -10
141 21 l29 23 -55 -18 c-70 -24 -77 -24 -123 0 -21 11 -59 23 -85 26 l-47 5
24 -20z"/>
<path d="M4311 6344 c0 -11 3 -14 6 -6 3 7 2 16 -1 19 -3 4 -6 -2 -5 -13z"/>
<path d="M5784 5970 c0 -74 1 -105 3 -67 2 37 2 97 0 135 -2 37 -3 6 -3 -68z"/>
<path d="M3960 5697 c-150 -75 -230 -124 -337 -209 -54 -43 -63 -54 -63 -83 0
-32 -2 -33 -97 -70 -355 -135 -1229 -450 -1353 -486 -63 -19 -118 -80 -178
-196 -79 -155 -120 -277 -152 -456 -108 -598 -258 -1555 -340 -2172 -16 -126
-32 -242 -35 -257 l-5 -28 1765 0 c971 0 1765 2 1765 5 0 3 -22 45 -50 95
-134 241 -417 833 -577 1205 -74 171 -59 83 -133 805 -53 523 -148 1437 -164
1590 l-14 125 47 75 c26 41 55 87 65 103 10 15 14 27 10 27 -5 0 -74 -33 -154
-73z"/>
<path d="M6205 5548 c26 -230 -18 -1275 -89 -2138 l-14 -165 -135 -390 c-193
-557 -363 -1045 -376 -1078 -6 -16 -11 -30 -11 -33 0 -2 360 -4 799 -4 l799 0
8 43 7 42 12 -40 12 -40 691 -3 692 -2 -5 27 c-3 16 -23 163 -45 328 -58 425
-130 903 -210 1394 -119 723 -146 860 -186 968 -70 188 -161 343 -215 370
-193 93 -405 181 -630 261 -75 27 -268 102 -429 168 -267 108 -294 122 -304
148 -9 24 -40 43 -188 117 -98 49 -181 89 -184 89 -4 0 -3 -28 1 -62z"/>
<path d="M5171 4578 c-55 -46 -201 -216 -201 -234 0 -11 40 -103 101 -232 l30
-62 -50 -408 c-65 -525 -105 -880 -127 -1117 l-16 -190 26 -260 c15 -143 29
-277 32 -298 l6 -37 289 0 289 0 0 280 c0 217 -6 344 -25 567 -49 548 -112
1144 -149 1387 l-13 90 48 145 c27 80 49 152 49 159 0 31 -202 252 -231 252
-4 0 -30 -19 -58 -42z"/>
<path d="M0 400 l0 -400 5000 0 5000 0 0 400 0 400 -5000 0 -5000 0 0 -400z
m2192 123 c23 -20 23 -57 1 -74 -15 -11 -16 -11 -5 1 27 31 11 72 -33 83 -19
4 -19 5 -1 6 11 0 28 -6 38 -16z m-69 -8 c-3 -9 -8 -14 -10 -11 -3 3 -2 9 2
15 9 16 15 13 8 -4z m-1760 -114 c22 -61 43 -108 47 -104 4 4 24 56 45 116 21
59 42 107 47 107 11 0 9 -5 -42 -149 -23 -64 -44 -107 -53 -109 -15 -3 -17 0
-67 143 -15 44 -31 88 -36 99 -5 13 -3 17 6 14 8 -2 32 -55 53 -117z m517 89
c0 -23 4 -30 20 -30 11 0 20 -4 20 -10 0 -5 -10 -10 -21 -10 -20 0 -21 -4 -17
-71 3 -55 8 -74 23 -85 23 -17 14 -29 -13 -15 -11 6 -22 25 -26 42 -10 51 -7
209 4 209 6 0 10 -13 10 -30z m515 16 c25 -11 33 -19 29 -30 -7 -19 -5 -19
-40 -1 -36 18 -55 19 -78 2 -28 -21 -9 -45 49 -62 87 -25 108 -74 54 -127 -29
-29 -33 -30 -90 -25 -68 6 -72 8 -64 29 5 13 12 14 40 5 50 -15 100 1 100 33
0 16 -8 28 -25 36 -87 40 -105 51 -108 67 -14 70 53 106 133 73z m105 -16 c0
-25 4 -30 25 -30 16 0 25 -6 25 -15 0 -9 -9 -15 -25 -15 -24 0 -25 -3 -25 -60
0 -55 2 -62 25 -72 14 -6 25 -15 25 -20 0 -18 -31 -20 -55 -4 -24 16 -25 20
-25 131 0 96 3 115 15 115 10 0 15 -10 15 -30z m482 -32 l3 -62 36 32 c20 18
45 32 55 32 14 0 9 -9 -21 -40 l-39 -40 42 -60 c40 -57 41 -60 20 -60 -16 0
-32 14 -53 45 -16 25 -33 45 -37 45 -5 0 -8 -20 -8 -45 0 -38 -3 -45 -20 -45
-19 0 -20 7 -20 130 0 122 1 130 20 130 16 0 19 -8 22 -62z m193 30 c1 -20 -2
-24 -11 -17 -8 7 -14 6 -17 -3 -3 -7 -6 2 -6 20 -1 27 3 33 17 30 11 -2 17
-13 17 -30z m-44 -35 c13 -16 12 -17 -3 -4 -17 13 -22 21 -14 21 2 0 10 -8 17
-17z m-1502 -19 c12 -15 21 -40 21 -55 0 -29 0 -29 -65 -29 -72 0 -83 -12 -44
-51 17 -17 30 -20 65 -16 43 4 59 -5 28 -17 -45 -17 -106 3 -123 41 -45 98 56
206 118 127z m191 16 c17 -11 10 -13 -40 -10 -47 2 -75 -28 -75 -80 0 -55 26
-80 82 -80 27 0 42 -4 38 -10 -9 -15 -78 -12 -102 5 -50 35 -50 135 0 170 24
17 74 20 97 5z m265 -13 c20 -16 28 -35 32 -69 5 -42 3 -50 -25 -78 -41 -41
-83 -41 -124 0 -28 28 -30 36 -25 78 9 82 84 119 142 69z m85 7 c0 -14 2 -14
22 0 24 17 38 20 38 9 0 -5 -14 -16 -30 -25 -29 -17 -30 -19 -30 -93 0 -43 -4
-75 -10 -75 -6 0 -10 40 -10 100 0 60 4 100 10 100 6 0 10 -7 10 -16z m537 1
c30 -21 44 -75 32 -120 -25 -88 -143 -88 -168 0 -20 72 20 135 84 135 17 0 40
-7 52 -15z m198 -5 c0 -10 -8 -14 -27 -12 -58 6 -91 -42 -67 -100 11 -28 36
-40 74 -35 12 1 20 -4 20 -13 0 -19 -48 -25 -85 -10 -63 26 -68 148 -6 179 31
15 91 9 91 -9z m5414 -83 c8 -26 17 -47 21 -47 4 0 13 21 21 47 8 25 20 48 26
50 13 5 -22 -113 -38 -131 -12 -14 -18 -5 -45 69 -16 44 -20 65 -12 63 7 -3
19 -26 27 -51z m641 43 c15 -10 13 -11 -29 -13 -35 -3 -36 -22 -2 -37 69 -28
36 -101 -33 -74 -27 10 -18 22 17 20 38 -1 43 19 8 37 -13 7 -29 19 -34 29
-22 34 34 63 73 38z m330 -25 c0 -35 16 -47 26 -20 4 8 13 15 22 15 13 0 13
-3 -2 -19 -16 -18 -16 -21 -1 -50 19 -38 8 -40 -22 -3 l-22 27 -1 -27 c0 -16
-4 -28 -10 -28 -6 0 -10 30 -10 70 0 40 4 70 10 70 6 0 10 -16 10 -35z m580
32 c0 -4 -34 -104 -45 -136 -3 -8 -8 -11 -11 -8 -8 7 38 147 48 147 4 0 8 -2
8 -3z m70 -57 c0 -33 4 -60 10 -60 6 0 10 -4 10 -10 0 -5 -13 -10 -30 -10 -16
0 -30 5 -30 10 0 6 5 10 10 10 6 0 10 20 10 45 0 38 -2 43 -17 38 -16 -6 -16
-4 1 15 29 34 36 27 36 -38z m118 48 c21 -21 13 -45 -25 -77 l-38 -30 43 -1
c23 0 42 -4 42 -10 0 -5 -22 -10 -50 -10 -62 0 -65 15 -14 63 42 40 39 62 -8
53 -26 -5 -29 -4 -18 9 15 18 51 20 68 3z m82 -48 c0 -33 4 -60 10 -60 6 0 10
-4 10 -10 0 -5 -13 -10 -30 -10 -16 0 -30 5 -30 10 0 6 5 10 10 10 6 0 10 20
10 45 0 38 -2 43 -17 38 -16 -6 -16 -4 1 15 29 34 36 27 36 -38z m120 41 c-5
-11 -15 -23 -21 -26 -6 -5 -2 -13 11 -22 42 -29 8 -82 -43 -69 -37 9 -34 27 3
20 22 -5 31 -2 36 11 6 16 -3 28 -31 39 -6 2 -5 9 3 17 18 19 15 29 -8 29 -11
0 -20 5 -20 10 0 6 18 10 40 10 37 0 40 -2 30 -19z m80 -41 c0 -33 4 -60 10
-60 6 0 10 -4 10 -10 0 -5 -13 -10 -30 -10 -16 0 -30 5 -30 10 0 6 5 10 10 10
6 0 10 20 10 45 0 38 -2 43 -17 38 -16 -6 -16 -4 1 15 29 34 36 27 36 -38z
m117 48 c14 -23 12 -106 -2 -118 -33 -27 -86 8 -70 46 4 11 7 27 6 37 -5 38
47 64 66 35z m125 -40 c2 -29 2 -61 0 -70 -5 -22 -22 -24 -22 -3 0 10 -10 15
-30 15 -16 0 -30 3 -30 6 0 16 56 104 67 104 6 0 13 -22 15 -52z m116 40 c21
-21 13 -45 -25 -77 l-38 -30 43 -1 c23 0 42 -4 42 -10 0 -5 -22 -10 -50 -10
-62 0 -65 15 -14 63 42 40 39 62 -8 53 -26 -5 -29 -4 -18 9 15 18 51 20 68 3z
m-1677 -46 c-15 -5 -14 -59 2 -65 6 -2 9 -7 6 -11 -15 -17 -37 8 -41 47 -6 59
0 72 24 50 11 -10 15 -19 9 -21z m-361 13 c9 -10 9 -15 1 -15 -15 0 -14 -57 2
-63 6 -2 9 -8 4 -13 -12 -13 -34 18 -40 58 -7 49 8 64 33 33z m-172 -7 c23
-23 13 -38 -24 -38 -46 0 -41 -23 7 -30 27 -4 30 -7 16 -13 -28 -11 -44 -9
-61 9 -32 31 -14 84 29 84 12 0 26 -5 33 -12z m109 5 c14 -6 10 -9 -17 -13
-29 -4 -35 -9 -35 -30 0 -21 5 -26 33 -28 36 -4 34 -22 -3 -22 -28 0 -55 24
-55 50 0 22 25 50 45 50 7 0 22 -3 32 -7z m177 -9 c21 -20 20 -43 -1 -66 -20
-22 -46 -23 -67 -2 -31 30 -9 84 34 84 10 0 26 -7 34 -16z m86 6 c0 -4 -7 -10
-15 -14 -9 -3 -15 -19 -15 -41 0 -19 -4 -35 -10 -35 -5 0 -10 22 -10 49 0 45
2 49 25 49 14 0 25 -4 25 -8z m274 -6 c21 -20 20 -43 -1 -66 -20 -22 -46 -23
-67 -2 -31 30 -9 84 34 84 10 0 26 -7 34 -16z m113 9 c14 -6 10 -9 -17 -13
-29 -4 -35 -9 -35 -30 0 -21 5 -26 33 -28 36 -4 34 -22 -3 -22 -28 0 -55 24
-55 50 0 22 25 50 45 50 7 0 22 -3 32 -7z m250 0 c14 -6 10 -9 -17 -13 -29 -4
-35 -9 -35 -30 0 -21 5 -26 33 -28 36 -4 34 -22 -3 -22 -28 0 -55 24 -55 50 0
22 25 50 45 50 7 0 22 -3 32 -7z m107 -9 c21 -20 20 -43 -1 -66 -20 -22 -46
-23 -67 -2 -31 30 -9 84 34 84 10 0 26 -7 34 -16z m113 4 c7 -5 14 -5 18 2 10
16 42 12 49 -6 10 -25 7 -84 -4 -84 -5 0 -10 18 -10 41 0 33 -3 40 -17 37 -13
-2 -19 -14 -21 -41 -4 -50 -22 -47 -22 4 0 36 -2 40 -22 37 -19 -2 -24 -10
-26 -40 -5 -55 -22 -46 -22 10 0 48 0 49 33 49 17 0 37 -4 44 -9z m-327 -78
c0 -5 -4 -10 -10 -10 -5 0 -10 5 -10 10 0 6 5 10 10 10 6 0 10 -4 10 -10z"/>
<path d="M2150 500 c0 -5 5 -10 10 -10 6 0 10 5 10 10 0 6 -4 10 -10 10 -5 0
-10 -4 -10 -10z"/>
<path d="M536 418 c-28 -39 -21 -48 39 -48 59 0 67 9 45 51 -15 27 -64 25 -84
-3z"/>
<path d="M986 424 c-50 -50 -21 -144 44 -144 48 0 80 50 66 104 -13 53 -75 75
-110 40z"/>
<path d="M1616 408 c-32 -46 -8 -118 39 -118 28 0 55 34 55 70 0 36 -27 70
-55 70 -13 0 -31 -10 -39 -22z"/>
<path d="M9412 373 c5 -26 38 -29 38 -4 0 15 -6 21 -21 21 -14 0 -19 -5 -17
-17z"/>
<path d="M9404 325 c-8 -21 10 -39 30 -32 22 9 20 24 -4 37 -16 9 -22 8 -26
-5z"/>
<path d="M9537 350 c-18 -29 -18 -30 2 -30 17 0 21 6 21 30 0 17 -1 30 -3 30
-1 0 -11 -13 -20 -30z"/>
<path d="M7435 340 c-4 -6 5 -10 19 -10 14 0 26 5 26 10 0 6 -9 10 -19 10 -11
0 -23 -4 -26 -10z"/>
<path d="M7714 336 c-10 -26 4 -48 28 -44 17 2 23 10 23 28 0 18 -6 26 -23 28
-13 2 -25 -3 -28 -12z"/>
<path d="M8074 336 c-10 -26 4 -48 28 -44 17 2 23 10 23 28 0 18 -6 26 -23 28
-13 2 -25 -3 -28 -12z"/>
<path d="M8544 336 c-10 -26 4 -48 28 -44 17 2 23 10 23 28 0 18 -6 26 -23 28
-13 2 -25 -3 -28 -12z"/>
</g>
</svg>
